<?xml version="1.0" encoding="UTF-8"?><svg id="Layer_2" xmlns="http://www.w3.org/2000/svg" xmlns:xlink="http://www.w3.org/1999/xlink" viewBox="0 0 157.35 215.73"><defs><linearGradient id="linear-gradient" x1="98.7" y1="205.23" x2="98.7" y2="47.8" gradientUnits="userSpaceOnUse"><stop offset="0" stop-color="#b37537"/><stop offset=".14" stop-color="#ca9445"/><stop offset=".28" stop-color="#deb053"/><stop offset=".43" stop-color="#edc45c"/><stop offset=".57" stop-color="#f6d062"/><stop offset=".72" stop-color="#f9d464"/></linearGradient><pattern id="Undulating_Fine_Dots_4" x="0" y="0" width="83" height="65" patternTransform="translate(-209.74 -442.66)" patternUnits="userSpaceOnUse" viewBox="0 0 83 65"><rect width="83" height="65" fill="none"/><line x1="83" y1="66.31" x2="83" y2="131.81" fill="none" stroke="#b37537" stroke-dasharray="0 6.5" stroke-linecap="round" stroke-width="3.5"/><line y1="66.31" y2="131.81" fill="none" stroke="#b37537" stroke-dasharray="0 6.5" stroke-linecap="round" stroke-width="3.5"/><line x1="4.61" y1="63.06" x2="4.61" y2="131.81" fill="none" stroke="#b37537" stroke-dasharray="0 6.5" stroke-linecap="round" stroke-width="3.25"/><line x1="9.22" y1="66.31" x2="9.22" y2="131.81" fill="none" stroke="#b37537" stroke-dasharray="0 6.5" stroke-linecap="round" stroke-width="3"/><line x1="13.83" y1="63.06" x2="13.83" y2="131.81" fill="none" stroke="#b37537" stroke-dasharray="0 6.5" stroke-linecap="round" stroke-width="2.75"/><line x1="23.06" y1="63.06" x2="23.06" y2="131.81" fill="none" stroke="#b37537" stroke-dasharray="0 6.5" stroke-linecap="round" stroke-width="2.25"/><line x1="32.28" y1="63.06" x2="32.28" y2="131.81" fill="none" stroke="#b37537" stroke-dasharray="0 6.5" stroke-linecap="round" stroke-width="1.75"/><line x1="41.5" y1="63.06" x2="41.5" y2="131.81" fill="none" stroke="#b37537" stroke-dasharray="0 6.5" stroke-linecap="round" stroke-width="1.25"/><line x1="83" y1="66.31" x2="83" y2="131.81" fill="none" stroke="#b37537" stroke-dasharray="0 6.5" stroke-linecap="round" stroke-width="3.5"/><line x1="78.39" y1="63.06" x2="78.39" y2="131.81" fill="none" stroke="#b37537" stroke-dasharray="0 6.5" stroke-linecap="round" stroke-width="3.25"/><line x1="73.78" y1="66.31" x2="73.78" y2="131.81" fill="none" stroke="#b37537" stroke-dasharray="0 6.5" stroke-linecap="round" stroke-width="3"/><line x1="69.17" y1="63.06" x2="69.17" y2="131.81" fill="none" stroke="#b37537" stroke-dasharray="0 6.5" stroke-linecap="round" stroke-width="2.75"/><line x1="59.94" y1="63.06" x2="59.94" y2="131.81" fill="none" stroke="#b37537" stroke-dasharray="0 6.5" stroke-linecap="round" stroke-width="2.25"/><line x1="50.72" y1="63.06" x2="50.72" y2="131.81" fill="none" stroke="#b37537" stroke-dasharray="0 6.5" stroke-linecap="round" stroke-width="1.75"/><line y1="66.31" y2="131.81" fill="none" stroke="#b37537" stroke-dasharray="0 6.5" stroke-linecap="round" stroke-width="3.5"/><line x1="83" y1="1.31" x2="83" y2="66.81" fill="none" stroke="#b37537" stroke-dasharray="0 6.5" stroke-linecap="round" stroke-width="3.5"/><line y1="1.31" y2="66.81" fill="none" stroke="#b37537" stroke-dasharray="0 6.5" stroke-linecap="round" stroke-width="3.5"/><line x1="4.61" y1="-1.94" x2="4.61" y2="66.81" fill="none" stroke="#b37537" stroke-dasharray="0 6.5" stroke-linecap="round" stroke-width="3.25"/><line x1="9.22" y1="1.31" x2="9.22" y2="66.81" fill="none" stroke="#b37537" stroke-dasharray="0 6.5" stroke-linecap="round" stroke-width="3"/><line x1="13.83" y1="-1.94" x2="13.83" y2="66.81" fill="none" stroke="#b37537" stroke-dasharray="0 6.5" stroke-linecap="round" stroke-width="2.75"/><line x1="18.45" y1="1.31" x2="18.45" y2="66.81" fill="none" stroke="#b37537" stroke-dasharray="0 6.5" stroke-linecap="round" stroke-width="2.5"/><line x1="23.06" y1="-1.94" x2="23.06" y2="66.81" fill="none" stroke="#b37537" stroke-dasharray="0 6.5" stroke-linecap="round" stroke-width="2.25"/><line x1="27.67" y1="1.31" x2="27.67" y2="66.81" fill="none" stroke="#b37537" stroke-dasharray="0 6.5" stroke-linecap="round" stroke-width="2"/><line x1="32.28" y1="-1.94" x2="32.28" y2="66.81" fill="none" stroke="#b37537" stroke-dasharray="0 6.5" stroke-linecap="round" stroke-width="1.75"/><line x1="36.89" y1="1.31" x2="36.89" y2="66.81" fill="none" stroke="#b37537" stroke-dasharray="0 6.5" stroke-linecap="round" stroke-width="1.5"/><line x1="41.5" y1="-1.94" x2="41.5" y2="66.81" fill="none" stroke="#b37537" stroke-dasharray="0 6.5" stroke-linecap="round" stroke-width="1.25"/><line x1="83" y1="1.31" x2="83" y2="66.81" fill="none" stroke="#b37537" stroke-dasharray="0 6.5" stroke-linecap="round" stroke-width="3.5"/><line x1="78.39" y1="-1.94" x2="78.39" y2="66.81" fill="none" stroke="#b37537" stroke-dasharray="0 6.5" stroke-linecap="round" stroke-width="3.25"/><line x1="73.78" y1="1.31" x2="73.78" y2="66.81" fill="none" stroke="#b37537" stroke-dasharray="0 6.5" stroke-linecap="round" stroke-width="3"/><line x1="69.17" y1="-1.94" x2="69.17" y2="66.81" fill="none" stroke="#b37537" stroke-dasharray="0 6.5" stroke-linecap="round" stroke-width="2.75"/><line x1="64.55" y1="1.31" x2="64.55" y2="66.81" fill="none" stroke="#b37537" stroke-dasharray="0 6.5" stroke-linecap="round" stroke-width="2.5"/><line x1="59.94" y1="-1.94" x2="59.94" y2="66.81" fill="none" stroke="#b37537" stroke-dasharray="0 6.5" stroke-linecap="round" stroke-width="2.25"/><line x1="55.33" y1="1.31" x2="55.33" y2="66.81" fill="none" stroke="#b37537" stroke-dasharray="0 6.5" stroke-linecap="round" stroke-width="2"/><line x1="50.72" y1="-1.94" x2="50.72" y2="66.81" fill="none" stroke="#b37537" stroke-dasharray="0 6.5" stroke-linecap="round" stroke-width="1.75"/><line x1="46.11" y1="1.31" x2="46.11" y2="66.81" fill="none" stroke="#b37537" stroke-dasharray="0 6.5" stroke-linecap="round" stroke-width="1.5"/><line y1="1.31" y2="66.81" fill="none" stroke="#b37537" stroke-dasharray="0 6.5" stroke-linecap="round" stroke-width="3.5"/><line x1="83" y1="-63.69" x2="83" y2="1.81" fill="none" stroke="#b37537" stroke-dasharray="0 6.5" stroke-linecap="round" stroke-width="3.5"/><line y1="-63.69" y2="1.81" fill="none" stroke="#b37537" stroke-dasharray="0 6.5" stroke-linecap="round" stroke-width="3.5"/><line x1="4.61" y1="-66.94" x2="4.61" y2="1.81" fill="none" stroke="#b37537" stroke-dasharray="0 6.5" stroke-linecap="round" stroke-width="3.25"/><line x1="9.22" y1="-63.69" x2="9.22" y2="1.81" fill="none" stroke="#b37537" stroke-dasharray="0 6.5" stroke-linecap="round" stroke-width="3"/><line x1="13.83" y1="-66.94" x2="13.83" y2="1.81" fill="none" stroke="#b37537" stroke-dasharray="0 6.5" stroke-linecap="round" stroke-width="2.75"/><line x1="18.45" y1="-63.69" x2="18.45" y2="1.81" fill="none" stroke="#b37537" stroke-dasharray="0 6.5" stroke-linecap="round" stroke-width="2.5"/><line x1="23.06" y1="-66.94" x2="23.06" y2="1.81" fill="none" stroke="#b37537" stroke-dasharray="0 6.5" stroke-linecap="round" stroke-width="2.25"/><line x1="27.67" y1="-63.69" x2="27.67" y2="1.81" fill="none" stroke="#b37537" stroke-dasharray="0 6.5" stroke-linecap="round" stroke-width="2"/><line x1="32.28" y1="-66.94" x2="32.28" y2="1.81" fill="none" stroke="#b37537" stroke-dasharray="0 6.5" stroke-linecap="round" stroke-width="1.75"/><line x1="36.89" y1="-63.69" x2="36.89" y2="1.81" fill="none" stroke="#b37537" stroke-dasharray="0 6.5" stroke-linecap="round" stroke-width="1.5"/><line x1="41.5" y1="-66.94" x2="41.5" y2="1.81" fill="none" stroke="#b37537" stroke-dasharray="0 6.5" stroke-linecap="round" stroke-width="1.25"/><line x1="83" y1="-63.69" x2="83" y2="1.81" fill="none" stroke="#b37537" stroke-dasharray="0 6.5" stroke-linecap="round" stroke-width="3.5"/><line x1="78.39" y1="-66.94" x2="78.39" y2="1.81" fill="none" stroke="#b37537" stroke-dasharray="0 6.5" stroke-linecap="round" stroke-width="3.25"/><line x1="73.78" y1="-63.69" x2="73.78" y2="1.81" fill="none" stroke="#b37537" stroke-dasharray="0 6.5" stroke-linecap="round" stroke-width="3"/><line x1="69.17" y1="-66.94" x2="69.17" y2="1.81" fill="none" stroke="#b37537" stroke-dasharray="0 6.5" stroke-linecap="round" stroke-width="2.75"/><line x1="64.55" y1="-63.69" x2="64.55" y2="1.81" fill="none" stroke="#b37537" stroke-dasharray="0 6.5" stroke-linecap="round" stroke-width="2.5"/><line x1="59.94" y1="-66.94" x2="59.94" y2="1.81" fill="none" stroke="#b37537" stroke-dasharray="0 6.5" stroke-linecap="round" stroke-width="2.25"/><line x1="55.33" y1="-63.69" x2="55.33" y2="1.81" fill="none" stroke="#b37537" stroke-dasharray="0 6.5" stroke-linecap="round" stroke-width="2"/><line x1="50.72" y1="-66.94" x2="50.72" y2="1.81" fill="none" stroke="#b37537" stroke-dasharray="0 6.5" stroke-linecap="round" stroke-width="1.75"/><line x1="46.11" y1="-63.69" x2="46.11" y2="1.81" fill="none" stroke="#b37537" stroke-dasharray="0 6.5" stroke-linecap="round" stroke-width="1.5"/><line y1="-63.69" y2="1.81" fill="none" stroke="#b37537" stroke-dasharray="0 6.5" stroke-linecap="round" stroke-width="3.5"/></pattern><linearGradient id="linear-gradient-2" x1="93.33" y1="87.04" x2="93.33" y2="21.73" gradientUnits="userSpaceOnUse"><stop offset="0" stop-color="#bd2551"/><stop offset=".06" stop-color="#c53059"/><stop offset=".24" stop-color="#d84a6c"/><stop offset=".41" stop-color="#e65d7a"/><stop offset=".6" stop-color="#ef6982"/><stop offset=".79" stop-color="#f26d85"/></linearGradient><pattern id="Undulating_Fine_Dots_3" x="0" y="0" width="83" height="65" patternTransform="translate(-209.74 -442.66)" patternUnits="userSpaceOnUse" viewBox="0 0 83 65"><rect width="83" height="65" fill="none"/><line x1="83" y1="66.31" x2="83" y2="131.81" fill="none" stroke="#bd2551" stroke-dasharray="0 6.5" stroke-linecap="round" stroke-width="3.5"/><line y1="66.31" y2="131.81" fill="none" stroke="#bd2551" stroke-dasharray="0 6.5" stroke-linecap="round" stroke-width="3.5"/><line x1="4.61" y1="63.06" x2="4.61" y2="131.81" fill="none" stroke="#bd2551" stroke-dasharray="0 6.5" stroke-linecap="round" stroke-width="3.25"/><line x1="9.22" y1="66.31" x2="9.22" y2="131.81" fill="none" stroke="#bd2551" stroke-dasharray="0 6.5" stroke-linecap="round" stroke-width="3"/><line x1="13.83" y1="63.06" x2="13.83" y2="131.81" fill="none" stroke="#bd2551" stroke-dasharray="0 6.5" stroke-linecap="round" stroke-width="2.75"/><line x1="23.06" y1="63.06" x2="23.06" y2="131.81" fill="none" stroke="#bd2551" stroke-dasharray="0 6.5" stroke-linecap="round" stroke-width="2.25"/><line x1="32.28" y1="63.06" x2="32.28" y2="131.81" fill="none" stroke="#bd2551" stroke-dasharray="0 6.5" stroke-linecap="round" stroke-width="1.75"/><line x1="41.5" y1="63.06" x2="41.5" y2="131.81" fill="none" stroke="#bd2551" stroke-dasharray="0 6.5" stroke-linecap="round" stroke-width="1.25"/><line x1="83" y1="66.31" x2="83" y2="131.81" fill="none" stroke="#bd2551" stroke-dasharray="0 6.5" stroke-linecap="round" stroke-width="3.5"/><line x1="78.39" y1="63.06" x2="78.39" y2="131.81" fill="none" stroke="#bd2551" stroke-dasharray="0 6.5" stroke-linecap="round" stroke-width="3.25"/><line x1="73.78" y1="66.31" x2="73.78" y2="131.81" fill="none" stroke="#bd2551" stroke-dasharray="0 6.5" stroke-linecap="round" stroke-width="3"/><line x1="69.17" y1="63.06" x2="69.17" y2="131.81" fill="none" stroke="#bd2551" stroke-dasharray="0 6.5" stroke-linecap="round" stroke-width="2.75"/><line x1="59.94" y1="63.06" x2="59.94" y2="131.81" fill="none" stroke="#bd2551" stroke-dasharray="0 6.5" stroke-linecap="round" stroke-width="2.25"/><line x1="50.72" y1="63.06" x2="50.72" y2="131.81" fill="none" stroke="#bd2551" stroke-dasharray="0 6.5" stroke-linecap="round" stroke-width="1.75"/><line y1="66.31" y2="131.81" fill="none" stroke="#bd2551" stroke-dasharray="0 6.5" stroke-linecap="round" stroke-width="3.5"/><line x1="83" y1="1.31" x2="83" y2="66.81" fill="none" stroke="#bd2551" stroke-dasharray="0 6.5" stroke-linecap="round" stroke-width="3.5"/><line y1="1.31" y2="66.81" fill="none" stroke="#bd2551" stroke-dasharray="0 6.5" stroke-linecap="round" stroke-width="3.5"/><line x1="4.61" y1="-1.94" x2="4.61" y2="66.81" fill="none" stroke="#bd2551" stroke-dasharray="0 6.5" stroke-linecap="round" stroke-width="3.25"/><line x1="9.22" y1="1.31" x2="9.22" y2="66.81" fill="none" stroke="#bd2551" stroke-dasharray="0 6.5" stroke-linecap="round" stroke-width="3"/><line x1="13.83" y1="-1.94" x2="13.83" y2="66.81" fill="none" stroke="#bd2551" stroke-dasharray="0 6.5" stroke-linecap="round" stroke-width="2.75"/><line x1="18.45" y1="1.31" x2="18.45" y2="66.81" fill="none" stroke="#bd2551" stroke-dasharray="0 6.5" stroke-linecap="round" stroke-width="2.5"/><line x1="23.06" y1="-1.94" x2="23.06" y2="66.81" fill="none" stroke="#bd2551" stroke-dasharray="0 6.5" stroke-linecap="round" stroke-width="2.25"/><line x1="27.67" y1="1.31" x2="27.67" y2="66.81" fill="none" stroke="#bd2551" stroke-dasharray="0 6.5" stroke-linecap="round" stroke-width="2"/><line x1="32.28" y1="-1.94" x2="32.28" y2="66.81" fill="none" stroke="#bd2551" stroke-dasharray="0 6.5" stroke-linecap="round" stroke-width="1.75"/><line x1="36.89" y1="1.31" x2="36.89" y2="66.81" fill="none" stroke="#bd2551" stroke-dasharray="0 6.5" stroke-linecap="round" stroke-width="1.5"/><line x1="41.5" y1="-1.94" x2="41.5" y2="66.81" fill="none" stroke="#bd2551" stroke-dasharray="0 6.5" stroke-linecap="round" stroke-width="1.25"/><line x1="83" y1="1.31" x2="83" y2="66.81" fill="none" stroke="#bd2551" stroke-dasharray="0 6.5" stroke-linecap="round" stroke-width="3.5"/><line x1="78.39" y1="-1.94" x2="78.39" y2="66.81" fill="none" stroke="#bd2551" stroke-dasharray="0 6.5" stroke-linecap="round" stroke-width="3.25"/><line x1="73.78" y1="1.31" x2="73.78" y2="66.81" fill="none" stroke="#bd2551" stroke-dasharray="0 6.5" stroke-linecap="round" stroke-width="3"/><line x1="69.17" y1="-1.94" x2="69.17" y2="66.81" fill="none" stroke="#bd2551" stroke-dasharray="0 6.5" stroke-linecap="round" stroke-width="2.75"/><line x1="64.55" y1="1.31" x2="64.55" y2="66.81" fill="none" stroke="#bd2551" stroke-dasharray="0 6.5" stroke-linecap="round" stroke-width="2.5"/><line x1="59.94" y1="-1.94" x2="59.94" y2="66.81" fill="none" stroke="#bd2551" stroke-dasharray="0 6.5" stroke-linecap="round" stroke-width="2.25"/><line x1="55.33" y1="1.31" x2="55.33" y2="66.81" fill="none" stroke="#bd2551" stroke-dasharray="0 6.5" stroke-linecap="round" stroke-width="2"/><line x1="50.72" y1="-1.94" x2="50.72" y2="66.81" fill="none" stroke="#bd2551" stroke-dasharray="0 6.5" stroke-linecap="round" stroke-width="1.75"/><line x1="46.11" y1="1.31" x2="46.11" y2="66.81" fill="none" stroke="#bd2551" stroke-dasharray="0 6.5" stroke-linecap="round" stroke-width="1.5"/><line y1="1.31" y2="66.81" fill="none" stroke="#bd2551" stroke-dasharray="0 6.5" stroke-linecap="round" stroke-width="3.5"/><line x1="83" y1="-63.69" x2="83" y2="1.81" fill="none" stroke="#bd2551" stroke-dasharray="0 6.5" stroke-linecap="round" stroke-width="3.5"/><line y1="-63.69" y2="1.81" fill="none" stroke="#bd2551" stroke-dasharray="0 6.5" stroke-linecap="round" stroke-width="3.5"/><line x1="4.61" y1="-66.94" x2="4.61" y2="1.81" fill="none" stroke="#bd2551" stroke-dasharray="0 6.5" stroke-linecap="round" stroke-width="3.25"/><line x1="9.22" y1="-63.69" x2="9.22" y2="1.81" fill="none" stroke="#bd2551" stroke-dasharray="0 6.5" stroke-linecap="round" stroke-width="3"/><line x1="13.83" y1="-66.94" x2="13.83" y2="1.81" fill="none" stroke="#bd2551" stroke-dasharray="0 6.5" stroke-linecap="round" stroke-width="2.75"/><line x1="18.45" y1="-63.69" x2="18.45" y2="1.81" fill="none" stroke="#bd2551" stroke-dasharray="0 6.5" stroke-linecap="round" stroke-width="2.5"/><line x1="23.06" y1="-66.94" x2="23.06" y2="1.81" fill="none" stroke="#bd2551" stroke-dasharray="0 6.5" stroke-linecap="round" stroke-width="2.25"/><line x1="27.67" y1="-63.69" x2="27.67" y2="1.81" fill="none" stroke="#bd2551" stroke-dasharray="0 6.5" stroke-linecap="round" stroke-width="2"/><line x1="32.28" y1="-66.94" x2="32.28" y2="1.81" fill="none" stroke="#bd2551" stroke-dasharray="0 6.5" stroke-linecap="round" stroke-width="1.75"/><line x1="36.89" y1="-63.69" x2="36.89" y2="1.81" fill="none" stroke="#bd2551" stroke-dasharray="0 6.5" stroke-linecap="round" stroke-width="1.5"/><line x1="41.5" y1="-66.94" x2="41.5" y2="1.81" fill="none" stroke="#bd2551" stroke-dasharray="0 6.5" stroke-linecap="round" stroke-width="1.25"/><line x1="83" y1="-63.69" x2="83" y2="1.81" fill="none" stroke="#bd2551" stroke-dasharray="0 6.5" stroke-linecap="round" stroke-width="3.5"/><line x1="78.39" y1="-66.94" x2="78.39" y2="1.81" fill="none" stroke="#bd2551" stroke-dasharray="0 6.5" stroke-linecap="round" stroke-width="3.25"/><line x1="73.78" y1="-63.69" x2="73.78" y2="1.81" fill="none" stroke="#bd2551" stroke-dasharray="0 6.5" stroke-linecap="round" stroke-width="3"/><line x1="69.17" y1="-66.94" x2="69.17" y2="1.81" fill="none" stroke="#bd2551" stroke-dasharray="0 6.5" stroke-linecap="round" stroke-width="2.75"/><line x1="64.55" y1="-63.69" x2="64.55" y2="1.81" fill="none" stroke="#bd2551" stroke-dasharray="0 6.5" stroke-linecap="round" stroke-width="2.5"/><line x1="59.94" y1="-66.94" x2="59.94" y2="1.81" fill="none" stroke="#bd2551" stroke-dasharray="0 6.5" stroke-linecap="round" stroke-width="2.25"/><line x1="55.33" y1="-63.69" x2="55.33" y2="1.81" fill="none" stroke="#bd2551" stroke-dasharray="0 6.5" stroke-linecap="round" stroke-width="2"/><line x1="50.72" y1="-66.94" x2="50.72" y2="1.81" fill="none" stroke="#bd2551" stroke-dasharray="0 6.5" stroke-linecap="round" stroke-width="1.75"/><line x1="46.11" y1="-63.69" x2="46.11" y2="1.81" fill="none" stroke="#bd2551" stroke-dasharray="0 6.5" stroke-linecap="round" stroke-width="1.5"/><line y1="-63.69" y2="1.81" fill="none" stroke="#bd2551" stroke-dasharray="0 6.5" stroke-linecap="round" stroke-width="3.5"/></pattern></defs><path d="M106.08,204.51c.55-.47.46-1.1.32-1.84-.98-3.92-4.59-16.04-9.16-32.09-6-20.88-13.97-48.57-20.91-72.67l-15.2-50.11,29.7.14h.8c2.81,9.02,5.17,17.89,8.97,30.86,7.82,27.22,18.71,65.07,26.39,91.78,4.58,16.05,8.19,28.17,9.17,32.09.14.74.22,1.37-.32,1.84l-.14.09c-7.27.54-18.98.65-31.44.63" fill="url(#linear-gradient)"/><path d="M106.08,204.51c.55-.47.46-1.1.32-1.84-.98-3.92-4.59-16.04-9.16-32.09-6-20.88-13.97-48.57-20.91-72.67l-15.2-50.11,29.7.14h.8c2.81,9.02,5.17,17.89,8.97,30.86,7.82,27.22,18.71,65.07,26.39,91.78,4.58,16.05,8.19,28.17,9.17,32.09.14.74.22,1.37-.32,1.84l-.14.09c-7.27.54-18.98.65-31.44.63" fill="url(#Undulating_Fine_Dots_4)" stroke="#763f1a" stroke-miterlimit="10" stroke-width="6"/><path d="M110.6,204.74l-.13.09c-4.1.3-9.6.47-15.84.56-13.58-.1-26.42-.24-33.82-.06-1.9-.13-3.65-.05-5.14,0-.82-.01-1.63-.02-2.44-.02h-.04c-8.98-.07-16.91-.1-22.13.02-6.66-.45-11.58,1.69-9.54-4.25,6.12-21.06,41.74-145.6,44.13-153.05.26-.56.47-.51.75.14,2.81,9.02,5.17,17.89,8.96,30.86,1.71,5.94,3.56,12.39,5.49,19.11,6.94,24.1,14.91,51.79,20.91,72.67,4.57,16.05,8.18,28.17,9.16,32.09.14.74.23,1.37-.32,1.84Z" fill="#fad564" stroke="#763f1a" stroke-miterlimit="10" stroke-width="6"/><path d="M66.04,21.73h21.92c18.04,0,32.66,14.62,32.66,32.66s-14.62,32.66-32.66,32.66h-21.92" fill="url(#linear-gradient-2)"/><path d="M66.04,20.86h21.92c18.04,0,32.66,14.62,32.66,32.66s-14.62,32.66-32.66,32.66h-21.92" fill="url(#Undulating_Fine_Dots_3)" stroke="#763f1a" stroke-miterlimit="10" stroke-width="6"/><circle cx="66.04" cy="53.52" r="32.66" fill="#f26d85" stroke="#763f1a" stroke-miterlimit="10" stroke-width="6"/><path d="M81.76,56.59c0,10.38-8.41,18.79-18.79,18.79s-18.79-8.41-18.79-18.79" fill="none" stroke="#fff" stroke-linecap="round" stroke-miterlimit="10" stroke-width="6"/></svg>