<?xml version="1.0" encoding="UTF-8"?><svg xmlns="http://www.w3.org/2000/svg" viewBox="0 0 252.4 44.49"><g id="Layer_1"><path d="M1.74,19.17c.26-6.46,3.85-12.84,10.03-15.27,7.85-3.29,18.17-2.83,25.29,2,2.95,1.96,5.48-.64,8.11-1.88,4.99-2.35,11.39-2.71,17.05-1.64,12.27,2.33,15.73,11.4,15.04,22.98,0,3.53,0,8.48,0,11.95-.16,3.07.53,4.47-1.33,4.93-2.99.31-7.53.07-10.64.13-.97-.07-2.34.12-2.8-.89-.58-4.11-.05-12.68-.22-17.02.07-3.96.14-8.79-4.2-10.61-4.23-1.75-9.99.02-10.78,4.94-.7,4.89-.15,12.2-.32,17.57-.04,1.89.16,4.83-.35,5.35-.39.58-1.36.65-3.07.66-2.41,0-6.52.02-8.92-.01-1.12-.09-1.89.02-2.4-.8-.22-.47-.23-1.08-.25-1.67-.19-5.4.38-14.99-.29-20.94-.86-6.23-9.95-7.74-13.49-2.95-2.08,3.38-1.37,5.53-1.52,10.35,0,2.94,0,6.07,0,9-.17,2.05.42,5.24-.46,6.5-.45.48-1.48.52-3.17.54-2.44,0-6.5.03-8.89-.02-2.11.02-2.54-.71-2.48-2.63.07-5.44-.14-14.66.08-20.4v-.16Z" fill="#60c6e8"/><path d="M106.41,19.1c.34-10.41,8.02-16.67,19.69-17.22,10.12-.88,22.56,2.77,24.35,13.83.41,2.08.85,4.52-1.88,4.43-2.83,0-7.75.12-10.76-.06-1.49-.18-1.88-1.22-2.45-2.72-.53-1.47-1.47-2.82-2.85-3.44-4.24-1.91-10.18-.54-10.85,4.69-.67,7.03.13,16.18-.34,23.06-.18.68-.93.68-2.7.69-3.23-.1-8.45.21-11.6-.14-.55-.17-.62-.59-.66-1.14,0-4.37-.1-16.77.03-21.84v-.14Z" fill="#c2dd8c"/><path d="M152.14,42.32,154.24-8.48,169.24-8.48" fill="#fad564"/><path d="M176.41,21.08c.37-11.33,8.7-18.52,21.53-19.19,11.3-1.02,24.84,3.43,26.69,15.6.98,6,.34,10.79.52,17.53-.02,2.72.06,5-.07,6.08-.07.56-.31.98-.91,1.11-3.6.31-9.4.16-12.71.07-2.08-.08-1.09-3.64-1.31-6.2-.13-4.91.31-11.3-.27-15.81-.82-7.1-9.95-9.04-15.3-5.32-3.67,3.19-3.17,6.96-3.23,11.92,0,3.59,0,7.37,0,10.93-.09,3.94.64,4.66-3.31,4.56-2.45,0-6.56,0-8.98,0-1.16-.08-1.94.12-2.48-.69-.17-.38-.21-.88-.22-1.36.03-4.69-.1-13.82.05-19.08v-.15Z" fill="#ec754b"/><path d="M102.74,42.31c-4.39.32-15.34.03-19.45.12-1.63-.11-2.84.41-2.34-1.04,1.5-5.16,10.22-35.66,10.81-37.49.07-.14.12-.13.18.03.69,2.21,1.27,4.38,2.2,7.56,1.92,6.67,4.58,15.94,6.47,22.48,1.12,3.93,2,6.9,2.24,7.86.03.18.06.34-.08.45l-.03.02Z" fill="#fad564"/><circle cx="91.85" cy="9.75" r="8" fill="#f26d86"/><path d="M172.75,42.31c-.99.3-2.78.06-5.96.14-5.5-.1-11.55.19-15.72-.11-.05-3.49,9.48-33.09,10.53-37.92.11-.37.21-.78.36-.46.7,2.2,1.27,4.38,2.2,7.55,1.92,6.66,4.59,15.93,6.47,22.47,1.12,3.93,2.01,6.89,2.24,7.85.03.19.05.34-.09.46l-.03.02Z" fill="#fad564"/><circle cx="161.87" cy="9.75" r="8" fill="#f26d86"/><path d="M250.51,42.31c-4.39.32-15.34.03-19.45.12-1.63-.11-2.84.41-2.34-1.04,1.5-5.16,10.22-35.66,10.81-37.49.07-.14.12-.13.18.03.69,2.21,1.27,4.38,2.2,7.56,1.92,6.67,4.58,15.94,6.47,22.48,1.12,3.93,2,6.9,2.24,7.86.03.18.06.34-.08.45l-.03.02Z" fill="#fad564"/><circle cx="239.62" cy="9.75" r="8" fill="#f26d86"/></g><g id="Layer_2"><path d="M97.19,9.75c0,2.96-2.4,5.36-5.36,5.36s-5.36-2.4-5.36-5.36" fill="none" stroke="#fff" stroke-linecap="round" stroke-miterlimit="10" stroke-width="2"/><path d="M167.34,9.75c0,2.96-2.4,5.36-5.36,5.36s-5.36-2.4-5.36-5.36" fill="none" stroke="#fff" stroke-linecap="round" stroke-miterlimit="10" stroke-width="2"/><path d="M244.99,9.75c0,2.96-2.4,5.36-5.36,5.36s-5.36-2.4-5.36-5.36" fill="none" stroke="#fff" stroke-linecap="round" stroke-miterlimit="10" stroke-width="2"/><path d="M137.22,5.77s8.54,2.52,10.43,10.43" fill="none" stroke="#fff" stroke-linecap="round" stroke-miterlimit="10" stroke-width="2"/><path d="M60.15,4.73s10.82,1.07,13.36,10.04" fill="none" stroke="#fff" stroke-linecap="round" stroke-miterlimit="10" stroke-width="2"/><path d="M211.85,6.82s8.36,1.25,9.3,10.92" fill="none" stroke="#fff" stroke-linecap="round" stroke-miterlimit="10" stroke-width="2"/></g></svg>