<?xml version="1.0" encoding="UTF-8"?><svg id="Layer_1" xmlns="http://www.w3.org/2000/svg" xmlns:xlink="http://www.w3.org/1999/xlink" viewBox="0 0 479.46 291.51"><defs><pattern id="New_Pattern" x="0" y="0" width="240.78" height="166.82" patternTransform="translate(-483.72 -374.98)" patternUnits="userSpaceOnUse" viewBox="0 0 240.78 166.82"><rect y="0" width="240.78" height="166.82" fill="none"/><polyline points="0 41.7 24.08 41.7 0 0" fill="#ffefbd"/><polygon points="48.16 0 24.08 41.7 72.23 41.7 48.16 0" fill="#ffefbd"/><polygon points="96.31 0 72.23 41.7 120.39 41.7 96.31 0" fill="#ffefbd"/><polygon points="72.23 41.7 48.16 83.41 96.31 83.41 72.23 41.7" fill="#ffefbd"/><polygon points="24.08 41.7 0 83.41 48.16 83.41 24.08 41.7" fill="#ffefbd"/><polyline points="0 41.7 24.08 41.7 0 83.41" fill="#b9e1d5"/><polygon points="96.31 83.41 72.23 41.7 120.39 41.7 96.31 83.41" fill="#cfeae4"/><polygon points="48.16 83.41 24.08 41.7 72.23 41.7 48.16 83.41" fill="#fac8d2"/><polygon points="24.08 41.7 0 0 48.16 0 24.08 41.7" fill="#bbe5f4"/><polygon points="72.23 41.7 48.16 0 96.31 0 72.23 41.7" fill="#fac8d2"/><polygon points="120.39 41.7 96.31 0 144.47 0 120.39 41.7" fill="#cfeae4"/><polygon points="144.47 0 120.39 41.7 168.55 41.7 144.47 0" fill="#ffefbd"/><polygon points="120.39 41.7 96.31 83.41 144.47 83.41 120.39 41.7" fill="#ffefbd"/><polygon points="192.63 0 168.55 41.7 216.7 41.7 192.63 0" fill="#ffefbd"/><polyline points="240.78 0 216.7 41.7 240.78 41.7" fill="#ffefbd"/><polygon points="216.7 41.7 192.63 83.41 240.78 83.41 216.7 41.7" fill="#ffefbd"/><polygon points="168.55 41.7 144.47 83.41 192.63 83.41 168.55 41.7" fill="#ffefbd"/><polygon points="144.47 83.41 120.39 41.7 168.55 41.7 144.47 83.41" fill="#bbe5f4"/><polyline points="240.78 83.41 216.7 41.7 240.78 41.7" fill="#b9e1d5"/><polygon points="192.63 83.41 168.55 41.7 216.7 41.7 192.63 83.41" fill="#fac8d2"/><polygon points="168.55 41.7 144.47 0 192.63 0 168.55 41.7" fill="#bbe5f4"/><polygon points="216.7 41.7 192.63 0 240.78 0 216.7 41.7" fill="#fac8d2"/><polyline points="0 125.11 24.08 125.11 0 83.41" fill="#ffefbd"/><polygon points="48.16 83.41 24.08 125.11 72.23 125.11 48.16 83.41" fill="#ffefbd"/><polygon points="96.31 83.41 72.23 125.11 120.39 125.11 96.31 83.41" fill="#ffefbd"/><polygon points="72.23 125.11 48.16 166.82 96.31 166.82 72.23 125.11" fill="#ffefbd"/><polygon points="24.08 125.11 0 166.82 48.16 166.82 24.08 125.11" fill="#ffefbd"/><polyline points="0 125.11 24.08 125.11 0 166.82" fill="#b9e1d5"/><polygon points="96.31 166.82 72.23 125.11 120.39 125.11 96.31 166.82" fill="#cfeae4"/><polygon points="48.16 166.82 24.08 125.11 72.23 125.11 48.16 166.82" fill="#fac8d2"/><polygon points="24.08 125.11 0 83.41 48.16 83.41 24.08 125.11" fill="#bbe5f4"/><polygon points="72.23 125.11 48.16 83.41 96.31 83.41 72.23 125.11" fill="#fac8d2"/><polygon points="120.39 125.11 96.31 83.41 144.47 83.41 120.39 125.11" fill="#cfeae4"/><polygon points="144.47 83.41 120.39 125.11 168.55 125.11 144.47 83.41" fill="#ffefbd"/><polygon points="120.39 125.11 96.31 166.82 144.47 166.82 120.39 125.11" fill="#ffefbd"/><polygon points="192.63 83.41 168.55 125.11 216.7 125.11 192.63 83.41" fill="#ffefbd"/><polyline points="240.78 83.41 216.7 125.11 240.78 125.11" fill="#ffefbd"/><polygon points="216.7 125.11 192.63 166.82 240.78 166.82 216.7 125.11" fill="#ffefbd"/><polygon points="168.55 125.11 144.47 166.82 192.63 166.82 168.55 125.11" fill="#ffefbd"/><polygon points="144.47 166.82 120.39 125.11 168.55 125.11 144.47 166.82" fill="#bbe5f4"/><polyline points="240.78 166.82 216.7 125.11 240.78 125.11" fill="#b9e1d5"/><polygon points="192.63 166.82 168.55 125.11 216.7 125.11 192.63 166.82" fill="#fac8d2"/><polygon points="168.55 125.11 144.47 83.41 192.63 83.41 168.55 125.11" fill="#bbe5f4"/><polygon points="216.7 125.11 192.63 83.41 240.78 83.41 216.7 125.11" fill="#fac8d2"/></pattern></defs><rect x="-33.98" y="-21.57" width="539.33" height="322.25" fill="url(#New_Pattern)" opacity=".31"/></svg>